<svg width="32" height="25" viewBox="0 0 32 25" fill="none" xmlns="http://www.w3.org/2000/svg">
<path d="M19.7379 7.25113C19.7354 7.25113 19.733 7.25152 19.7305 7.25152C19.7314 7.20194 19.7379 7.15374 19.7379 7.10397C19.7379 3.18057 16.5573 0 12.6339 0C8.71053 0 5.52995 3.18057 5.52995 7.10397C5.52995 7.10867 5.53074 7.11298 5.53074 7.11769C2.45323 7.26053 0 9.79351 0 12.9065C0 16.1112 2.59784 18.709 5.80251 18.709H19.7379C22.902 18.709 25.4669 16.1441 25.4669 12.98C25.4667 9.81604 22.9018 7.25113 19.7379 7.25113Z" fill="#C8E1FF"/>
<path d="M26.2287 13.5421C26.2262 13.5421 26.2238 13.5425 26.2213 13.5425C26.2223 13.4929 26.2287 13.4447 26.2287 13.395C26.2287 9.47157 23.0482 6.291 19.1248 6.291C15.2014 6.291 12.0208 9.47157 12.0208 13.395C12.0208 13.3997 12.0216 13.404 12.0216 13.4087C8.94388 13.5515 6.49084 16.0847 6.49084 19.1975C6.49084 22.4022 9.08868 25 12.2934 25H26.2287C29.3929 25 31.9578 22.4351 31.9578 19.271C31.9576 16.107 29.3927 13.5421 26.2287 13.5421Z" fill="#8FB5E2"/>
</svg>
