<svg width="24" height="24" viewBox="0 0 24 24" fill="none" xmlns="http://www.w3.org/2000/svg">
<path d="M12 2V4" stroke="white" stroke-width="2" stroke-linecap="round" stroke-linejoin="round"/>
<path d="M4.92999 4.93005L6.33999 6.34005" stroke="white" stroke-width="2" stroke-linecap="round" stroke-linejoin="round"/>
<path d="M20 12H22" stroke="white" stroke-width="2" stroke-linecap="round" stroke-linejoin="round"/>
<path d="M19.07 4.93005L17.66 6.34005" stroke="white" stroke-width="2" stroke-linecap="round" stroke-linejoin="round"/>
<path d="M15.947 12.6499C16.07 11.9044 15.9794 11.1393 15.6857 10.4432C15.3919 9.74705 14.9069 9.14835 14.287 8.71642C13.667 8.28449 12.9374 8.03698 12.1826 8.00257C11.4278 7.96815 10.6787 8.14822 10.022 8.52194" stroke="white" stroke-width="2" stroke-linecap="round" stroke-linejoin="round"/>
<path d="M13 22H7.00002C6.05399 21.9998 5.12743 21.7312 4.32794 21.2255C3.52846 20.7197 2.88887 19.9975 2.48345 19.1427C2.07803 18.288 1.92342 17.3358 2.03758 16.3966C2.15174 15.4575 2.52998 14.5701 3.12838 13.8373C3.72678 13.1046 4.52077 12.5567 5.41814 12.2572C6.31551 11.9577 7.27944 11.9189 8.19796 12.1454C9.11649 12.3718 9.95192 12.8542 10.6072 13.5366C11.2625 14.2189 11.7108 15.0731 11.9 16H13C13.7957 16 14.5587 16.3161 15.1213 16.8787C15.6839 17.4413 16 18.2044 16 19C16 19.7956 15.6839 20.5587 15.1213 21.1213C14.5587 21.6839 13.7957 22 13 22Z" stroke="white" stroke-width="2" stroke-linecap="round" stroke-linejoin="round"/>
</svg>
