<svg width="20" height="20" viewBox="0 0 20 20" fill="none" xmlns="http://www.w3.org/2000/svg">
<path d="M10 2C13.866 2 17 5.13401 17 9C17 12.4923 15.3021 14.9872 13.6455 16.584C12.8175 17.3821 11.9916 17.9656 11.3721 18.3496C11.0616 18.542 10.8007 18.6855 10.6152 18.7822C10.5225 18.8306 10.448 18.8673 10.3955 18.8926C10.3695 18.9051 10.3489 18.9149 10.334 18.9219L10.3154 18.9307L10.3096 18.9326L10.3076 18.9336C10.1098 19.0196 10 19 10 19C10 19 9.89015 19.0201 9.69336 18.9346L9.69043 18.9326L9.68457 18.9307L9.66602 18.9219C9.65106 18.9149 9.63047 18.9051 9.60449 18.8926C9.55204 18.8673 9.4775 18.8306 9.38477 18.7822C9.19932 18.6855 8.93837 18.542 8.62793 18.3496C8.00838 17.9656 7.18251 17.3821 6.35449 16.584C4.69788 14.9872 3 12.4923 3 9C3 5.13401 6.13401 2 10 2ZM10 6.75C8.75736 6.75 7.75 7.75736 7.75 9C7.75 10.2426 8.75736 11.25 10 11.25C11.2426 11.25 12.25 10.2426 12.25 9C12.25 7.75736 11.2426 6.75 10 6.75Z" fill="#1E293B"/>
</svg>
