<svg width="34" height="25" viewBox="0 0 34 25" fill="none" xmlns="http://www.w3.org/2000/svg">
<path d="M16.0881 15.4214C18.1303 13.0547 17.8672 9.48057 15.5006 7.43837C13.1339 5.39617 9.55977 5.65921 7.51756 8.02589C5.47536 10.3926 5.7384 13.9667 8.10508 16.0089C10.4718 18.0511 14.0459 17.788 16.0881 15.4214Z" fill="#FAAF40"/>
<path d="M11.8041 4.53084C11.41 4.53084 11.0907 4.21155 11.0907 3.81746V0.713382C11.0907 0.319289 11.41 0 11.8041 0C12.1982 0 12.5175 0.319289 12.5175 0.713382V3.81746C12.5175 4.21155 12.1982 4.53084 11.8041 4.53084Z" fill="#FAAF40"/>
<path d="M3.81746 12.5172H0.713388C0.319295 12.5172 0 12.1979 0 11.8039C0 11.4098 0.319295 11.0905 0.713388 11.0905H3.81746C4.21155 11.0905 4.53085 11.4098 4.53085 11.8039C4.53085 12.1979 4.21155 12.5172 3.81746 12.5172Z" fill="#FAAF40"/>
<path d="M6.15677 6.87001C5.97421 6.87001 5.79165 6.80032 5.65246 6.66094L3.45759 4.46606C3.17901 4.18768 3.17901 3.73582 3.45759 3.45725C3.73635 3.17868 4.18763 3.17868 4.46639 3.45725L6.66127 5.65213C6.93984 5.93051 6.93984 6.38237 6.66127 6.66094C6.5217 6.80032 6.33914 6.87001 6.15677 6.87001Z" fill="#FAAF40"/>
<path d="M3.96178 20.3593C3.77922 20.3593 3.59666 20.2896 3.45747 20.1502C3.17889 19.8719 3.17889 19.42 3.45747 19.1414L5.65235 16.9466C5.93092 16.668 6.38239 16.668 6.66115 16.9466C6.93972 17.2249 6.93972 17.6768 6.66115 17.9554L4.46628 20.1502C4.3269 20.2898 4.14434 20.3593 3.96178 20.3593Z" fill="#FAAF40"/>
<path d="M17.4513 6.87001C17.2687 6.87001 17.0862 6.80032 16.947 6.66094C16.6684 6.38255 16.6684 5.93089 16.947 5.65213L19.1417 3.45725C19.4198 3.17868 19.8717 3.17868 20.1505 3.45725C20.429 3.73564 20.429 4.1873 20.1505 4.46606L17.9558 6.66094C17.8166 6.80032 17.6338 6.87001 17.4513 6.87001Z" fill="#FAAF40"/>
<path d="M27.5616 13.9262C27.5592 13.9262 27.5569 13.9266 27.5545 13.9266C27.5554 13.8787 27.5616 13.8321 27.5616 13.784C27.5616 9.99208 24.4877 6.91812 20.6958 6.91812C16.9039 6.91812 13.8299 9.99208 13.8299 13.784C13.8299 13.7885 13.8307 13.7927 13.8307 13.7972C10.8564 13.9353 8.48535 16.3834 8.48535 19.392C8.48535 22.4892 10.9961 25 14.0934 25H27.5616C30.6197 25 33.0986 22.5211 33.0986 19.463C33.0986 16.4051 30.6197 13.9262 27.5616 13.9262Z" fill="#8FB5E2"/>
</svg>
