<svg width="26" height="25" viewBox="0 0 26 25" fill="none" xmlns="http://www.w3.org/2000/svg">
<path d="M19.6291 7.21117C19.6266 7.21117 19.6243 7.21156 19.6217 7.21156C19.6227 7.16226 19.6291 7.11432 19.6291 7.06483C19.6291 3.16305 16.4661 0 12.5643 0C8.66252 0 5.49947 3.16305 5.49947 7.06483C5.49947 7.0695 5.50025 7.07379 5.50025 7.07847C2.4397 7.22052 0 9.73954 0 12.8354C0 16.0224 2.58351 18.6059 5.77053 18.6059H19.6291C22.7758 18.6059 25.3266 16.0551 25.3266 12.9084C25.3264 9.76195 22.7756 7.21117 19.6291 7.21117Z" fill="#8FB5E2"/>
<path d="M2.62641 25C2.49351 25 2.35906 24.9641 2.23804 24.8883C1.89411 24.6736 1.78986 24.2207 2.0046 23.877L7.7079 14.7515C7.92303 14.4073 8.3757 14.3029 8.71944 14.518C9.06338 14.7328 9.16763 15.1856 8.95289 15.5294L3.24958 24.6549C3.11026 24.878 2.87096 25 2.62641 25Z" fill="#C6E0FF"/>
<path d="M14.4498 25C14.3169 25 14.1825 24.964 14.0615 24.8883C13.7177 24.6736 13.6133 24.2207 13.828 23.877L17.8703 17.4094C18.0854 17.0649 18.5387 16.9616 18.8817 17.176C19.2252 17.3907 19.3299 17.8436 19.1153 18.1875L15.0728 24.6551C14.9337 24.878 14.6946 25 14.4498 25Z" fill="#C6E0FF"/>
<path d="M8.32972 25C8.19838 25 8.0649 24.9647 7.94486 24.8905C7.60015 24.6775 7.49297 24.2252 7.70596 23.8801L15.6907 10.945C15.9039 10.6005 16.3554 10.4933 16.7009 10.7061C17.0456 10.9189 17.1528 11.3713 16.9398 11.7162L8.95504 24.6512C8.81629 24.8763 8.57583 25 8.32972 25Z" fill="#C6E0FF"/>
</svg>
