<svg width="23" height="25" viewBox="0 0 23 25" fill="none" xmlns="http://www.w3.org/2000/svg">
<path d="M15.6351 18.2838L14.0333 21.6878C13.681 22.4362 13.6656 23.3176 14.0597 24.0448C14.3383 24.559 14.8163 25 15.6351 25C16.4542 25 16.932 24.5592 17.2106 24.0448C17.6047 23.3176 17.5891 22.4362 17.237 21.6878L15.6351 18.2838Z" fill="#C7E1FF"/>
<path d="M17.4876 6.42439C17.4854 6.42439 17.4833 6.42474 17.481 6.42474C17.4819 6.38082 17.4876 6.3381 17.4876 6.29401C17.4876 2.81794 14.6697 0 11.1936 0C7.71756 0 4.89962 2.81794 4.89962 6.29401C4.89962 6.29818 4.90015 6.302 4.90015 6.30616C2.17352 6.43272 0 8.6769 0 11.4349C0 14.2742 2.30164 16.5759 5.14093 16.5759H17.4875C20.2908 16.5759 22.5633 14.3034 22.5633 11.5C22.5633 8.69686 20.2908 6.42439 17.4876 6.42439Z" fill="#8FB5E2"/>
<path d="M15.6351 15.0358H9.38018L12.5516 9.39752H9.38018L4.88696 17.4908H9.73242L7.79431 24.8148L15.6351 15.0358Z" fill="#FAAF40"/>
</svg>
