<svg width="25" height="25" viewBox="0 0 25 25" fill="none" xmlns="http://www.w3.org/2000/svg">
<path d="M18.3265 13.8123C19.0968 10.593 17.1115 7.3587 13.8921 6.58838C10.6728 5.81805 7.43855 7.80337 6.66823 11.0227C5.89791 14.242 7.88322 17.4763 11.1026 18.2466C14.3219 19.0169 17.5561 17.0316 18.3265 13.8123Z" fill="#FAAF40"/>
<path d="M12.5001 4.79809C12.0828 4.79809 11.7446 4.45997 11.7446 4.04263V0.755461C11.7446 0.338122 12.0828 0 12.5001 0C12.9174 0 13.2556 0.338122 13.2556 0.755461V4.04263C13.2556 4.45997 12.9174 4.79809 12.5001 4.79809Z" fill="#FAAF40"/>
<path d="M12.5001 25C12.0828 25 11.7446 24.6619 11.7446 24.2445V20.9574C11.7446 20.54 12.0828 20.2019 12.5001 20.2019C12.9174 20.2019 13.2556 20.54 13.2556 20.9574V24.2445C13.2556 24.6619 12.9174 25 12.5001 25Z" fill="#FAAF40"/>
<path d="M24.2445 13.2556H20.9574C20.54 13.2556 20.2019 12.9174 20.2019 12.5001C20.2019 12.0828 20.54 11.7446 20.9574 11.7446H24.2445C24.6619 11.7446 25 12.0828 25 12.5001C25 12.9174 24.6619 13.2556 24.2445 13.2556Z" fill="#FAAF40"/>
<path d="M0.755461 13.2556H4.04263C4.45997 13.2556 4.79809 12.9174 4.79809 12.5001C4.79809 12.0828 4.45997 11.7446 4.04263 11.7446H0.755461C0.338122 11.7446 0 12.0828 0 12.5001C0 12.9174 0.338122 13.2556 0.755461 13.2556Z" fill="#FAAF40"/>
<path d="M6.51984 7.27523C6.32651 7.27523 6.13318 7.20143 5.98578 7.05383L3.66144 4.72948C3.36643 4.43468 3.36643 3.95617 3.66144 3.66117C3.95644 3.36616 4.43455 3.36616 4.72975 3.66117L7.05409 5.98551C7.3491 6.28032 7.3491 6.75882 7.05409 7.05383C6.90629 7.20143 6.71296 7.27523 6.51984 7.27523Z" fill="#FAAF40"/>
<path d="M20.8045 21.5602C20.6112 21.5602 20.4179 21.4864 20.2705 21.3388L17.9464 19.0145C17.6513 18.7195 17.6513 18.2412 17.9464 17.9462C18.2414 17.6511 18.7195 17.6511 19.0147 17.9462L21.3388 20.2705C21.6338 20.5655 21.6338 21.0438 21.3388 21.3388C21.191 21.4864 20.9979 21.5602 20.8045 21.5602Z" fill="#FAAF40"/>
<path d="M4.1955 21.5602C4.00217 21.5602 3.80884 21.4864 3.66144 21.3388C3.36643 21.044 3.36643 20.5655 3.66144 20.2705L5.98578 17.9462C6.28078 17.6511 6.75889 17.6511 7.05409 17.9462C7.3491 18.241 7.3491 18.7195 7.05409 19.0145L4.72975 21.3388C4.58195 21.4864 4.38862 21.5602 4.1955 21.5602Z" fill="#FAAF40"/>
<path d="M18.4804 7.27523C18.2871 7.27523 18.0938 7.20143 17.9464 7.05383C17.6513 6.75902 17.6513 6.28072 17.9464 5.98551L20.2705 3.66117C20.5651 3.36616 21.0436 3.36616 21.3388 3.66117C21.6338 3.95597 21.6338 4.43428 21.3388 4.72948L19.0147 7.05383C18.8673 7.20143 18.6737 7.27523 18.4804 7.27523Z" fill="#FAAF40"/>
</svg>
