<svg width="16" height="16" viewBox="0 0 16 16" fill="none" xmlns="http://www.w3.org/2000/svg">
<path d="M8.53334 13.0666C8.70235 13.1934 8.89907 13.2782 9.10728 13.314C9.31549 13.3498 9.52923 13.3356 9.73089 13.2726C9.93255 13.2097 10.1164 13.0996 10.2672 12.9517C10.418 12.8037 10.5314 12.622 10.5982 12.4216C10.6651 12.2212 10.6833 12.0077 10.6514 11.7989C10.6196 11.59 10.5385 11.3917 10.415 11.2203C10.2915 11.049 10.129 10.9094 9.94091 10.8131C9.75285 10.7168 9.5446 10.6666 9.33334 10.6666H1.33334" stroke="#CB7F0F" stroke-linecap="round" stroke-linejoin="round"/>
<path d="M11.6667 5.33329C11.8371 5.10602 12.0628 4.92609 12.3224 4.81059C12.582 4.69508 12.8667 4.64785 13.1497 4.67336C13.4326 4.69887 13.7044 4.79629 13.9391 4.95636C14.1738 5.11643 14.3637 5.33384 14.4907 5.58794C14.6178 5.84204 14.6778 6.1244 14.665 6.40821C14.6522 6.69201 14.5671 6.96785 14.4178 7.20951C14.2684 7.45118 14.0597 7.65065 13.8116 7.789C13.5635 7.92734 13.2841 7.99996 13 7.99996H1.33334" stroke="#CB7F0F" stroke-linecap="round" stroke-linejoin="round"/>
<path d="M6.53334 2.93329C6.70235 2.80653 6.89907 2.72175 7.10728 2.68593C7.31549 2.65011 7.52923 2.66428 7.73089 2.72727C7.93255 2.79027 8.11636 2.90028 8.26716 3.04825C8.41796 3.19621 8.53144 3.37789 8.59825 3.57832C8.66506 3.77875 8.68328 3.99218 8.65142 4.20104C8.61956 4.40989 8.53852 4.60818 8.41499 4.77957C8.29146 4.95096 8.12897 5.09055 7.94091 5.18682C7.75285 5.28309 7.54461 5.33329 7.33334 5.33329H1.33334" stroke="#CB7F0F" stroke-linecap="round" stroke-linejoin="round"/>
</svg>
