<svg width="16" height="16" viewBox="0 0 16 16" fill="none" xmlns="http://www.w3.org/2000/svg">
<path d="M8.53331 13.0666C8.70233 13.1934 8.89905 13.2782 9.10726 13.314C9.31547 13.3498 9.52921 13.3356 9.73087 13.2726C9.93253 13.2097 10.1163 13.0996 10.2671 12.9517C10.4179 12.8037 10.5314 12.622 10.5982 12.4216C10.665 12.2212 10.6833 12.0077 10.6514 11.7989C10.6195 11.59 10.5385 11.3917 10.415 11.2203C10.2914 11.049 10.1289 10.9094 9.94089 10.8131C9.75283 10.7168 9.54458 10.6666 9.33331 10.6666H1.33331" stroke="white" stroke-linecap="round" stroke-linejoin="round"/>
<path d="M11.6666 5.33329C11.8371 5.10602 12.0628 4.92609 12.3224 4.81059C12.5819 4.69508 12.8667 4.64785 13.1497 4.67336C13.4326 4.69887 13.7043 4.79629 13.939 4.95636C14.1737 5.11643 14.3636 5.33384 14.4907 5.58794C14.6177 5.84204 14.6777 6.1244 14.665 6.40821C14.6522 6.69201 14.5671 6.96785 14.4177 7.20951C14.2684 7.45118 14.0597 7.65065 13.8116 7.789C13.5635 7.92734 13.2841 7.99996 13 7.99996H1.33331" stroke="white" stroke-linecap="round" stroke-linejoin="round"/>
<path d="M6.53331 2.93329C6.70233 2.80653 6.89905 2.72175 7.10726 2.68593C7.31547 2.65011 7.52921 2.66428 7.73087 2.72727C7.93253 2.79027 8.11633 2.90028 8.26713 3.04825C8.41793 3.19621 8.53142 3.37789 8.59822 3.57832C8.66503 3.77875 8.68326 3.99218 8.6514 4.20104C8.61954 4.40989 8.5385 4.60818 8.41497 4.77957C8.29144 4.95096 8.12895 5.09055 7.94089 5.18682C7.75283 5.28309 7.54458 5.33329 7.33331 5.33329H1.33331" stroke="white" stroke-linecap="round" stroke-linejoin="round"/>
</svg>
