<svg width="39" height="25" viewBox="0 0 39 25" fill="none" xmlns="http://www.w3.org/2000/svg">
<path d="M20.1141 7.38926C20.1115 7.38926 20.1091 7.38966 20.1065 7.38966C20.1075 7.33914 20.1141 7.29002 20.1141 7.2393C20.1141 3.24116 16.8729 0 12.8748 0C8.87665 0 5.63549 3.24116 5.63549 7.2393C5.63549 7.2441 5.6361 7.24848 5.6361 7.25327C2.49996 7.39884 0 9.98007 0 13.1523C0 16.4181 2.64732 19.0654 5.91304 19.0654H20.1139C23.3383 19.0654 25.9521 16.4516 25.9521 13.2272C25.9521 10.0032 23.3383 7.38926 20.1141 7.38926Z" fill="#8FB5E2"/>
<path d="M35.3585 12.9864H23.668C23.1141 12.9864 22.665 12.5373 22.665 11.9836C22.665 11.4297 23.1141 10.9807 23.668 10.9807H35.3585C36.1944 10.9807 36.8747 10.3006 36.8747 9.4645C36.8747 8.62865 36.1946 7.94835 35.3585 7.94835H33.8733C33.3194 7.94835 32.8704 7.49927 32.8704 6.94537C32.8704 6.39146 33.3194 5.9424 33.8733 5.9424H35.3585C37.3006 5.9424 38.8804 7.52205 38.8804 9.46431C38.8802 11.4068 37.3006 12.9864 35.3585 12.9864Z" fill="#C7E1FF"/>
<path d="M31.5481 25C29.0717 25 27.0572 22.9854 27.0572 20.5094C27.0572 18.8166 28.4341 17.4396 30.127 17.4396C31.8199 17.4396 33.1969 18.8166 33.1969 20.5094V21.026C33.1969 21.5799 32.7478 22.029 32.1939 22.029C31.64 22.029 31.1909 21.5799 31.1909 21.026V20.5094C31.1909 19.9228 30.7135 19.4454 30.1268 19.4454C29.5402 19.4454 29.0627 19.9228 29.0627 20.5094C29.0627 21.8796 30.1777 22.9942 31.5479 22.9942C32.9181 22.9942 34.0327 21.8796 34.0327 20.5094V19.4831C34.0327 17.6101 32.5092 16.0866 30.6362 16.0866H14.8838C14.3299 16.0866 13.8809 15.6375 13.8809 15.0836C13.8809 14.5297 14.3299 14.0806 14.8838 14.0806H30.6362C33.615 14.0806 36.0385 16.5041 36.0385 19.4829V20.5092C36.0387 22.9854 34.0241 25 31.5481 25Z" fill="#C7E1FF"/>
</svg>
